<?xml version="1.0" encoding="UTF-8" standalone="no"?>
<svg
   xmlns:dc="http://purl.org/dc/elements/1.1/"
   xmlns:cc="http://creativecommons.org/ns#"
   xmlns:rdf="http://www.w3.org/1999/02/22-rdf-syntax-ns#"
   xmlns:svg="http://www.w3.org/2000/svg"
   xmlns="http://www.w3.org/2000/svg"
   xmlns:xlink="http://www.w3.org/1999/xlink"
   xmlns:sodipodi="http://sodipodi.sourceforge.net/DTD/sodipodi-0.dtd"
   xmlns:inkscape="http://www.inkscape.org/namespaces/inkscape"
   width="128"
   height="128"
   style="enable-background:new 0 0 128 128;"
   version="1.1"
   id="svg73"
   sodipodi:docname="kolejka.svg"
   inkscape:version="0.92.1 r15371">
  <metadata
     id="metadata79">
    <rdf:RDF>
      <cc:Work
         rdf:about="">
        <dc:format>image/svg+xml</dc:format>
        <dc:type
           rdf:resource="http://purl.org/dc/dcmitype/StillImage" />
      </cc:Work>
    </rdf:RDF>
  </metadata>
  <defs
     id="defs77" />
  <sodipodi:namedview
     pagecolor="#ffffff"
     bordercolor="#666666"
     borderopacity="1"
     objecttolerance="10"
     gridtolerance="10"
     guidetolerance="10"
     inkscape:pageopacity="0"
     inkscape:pageshadow="2"
     inkscape:window-width="1600"
     inkscape:window-height="836"
     id="namedview75"
     showgrid="false"
     inkscape:zoom="5.2149125"
     inkscape:cx="65.084746"
     inkscape:cy="61.830508"
     inkscape:window-x="0"
     inkscape:window-y="27"
     inkscape:window-maximized="1"
     inkscape:current-layer="svg73" />
  <g
     id="g12">
    <rect
       height="23"
       style="fill:#8D6E63;"
       width="119.85"
       x="4.04"
       y="101"
       id="rect8" />
    <rect
       height="7"
       style="fill:#424242;"
       width="119.92"
       x="4.04"
       y="101"
       id="rect10" />
  </g>
  <g
     style="opacity:0.2;"
     id="g16">
    <path
       d="M121.89,103v19H6.04v-19H121.89 M123.89,101H4.04v23h119.85V101L123.89,101z"
       style="fill:#EEEEEE;"
       id="path14" />
  </g>
  <circle
     cx="33"
     cy="99"
     r="6"
     id="circle18" />
  <circle
     cx="50"
     cy="99"
     r="6"
     id="circle20" />
  <circle
     cx="101"
     cy="99"
     r="6"
     id="circle22" />
  <circle
     cx="118"
     cy="99"
     r="6"
     id="circle24" />
  <path
     d="M20,37.08V92c0,3.3,2.7,6,6,6h98l0-60.92H20z"
     style="fill:#FFF8E1;"
     id="path26" />
  <path
     d="M64.04,68.25h-8.11c-2.21,0-4-1.79-4-4V48.17c0-2.21,1.79-4,4-4h8.11c2.21,0,4,1.79,4,4v16.08 C68.04,66.46,66.25,68.25,64.04,68.25z"
     style="fill:#4FC3F7;"
     id="path28" />
  <path
     d="M88.09,68.25h-8.11c-2.21,0-4-1.79-4-4V48.17c0-2.21,1.79-4,4-4h8.11c2.21,0,4,1.79,4,4v16.08 C92.09,66.46,90.3,68.25,88.09,68.25z"
     style="fill:#4FC3F7;"
     id="path30" />
  <path
     d="M112,68.25h-8.11c-2.21,0-4-1.79-4-4V48.17c0-2.21,1.79-4,4-4H112c2.21,0,4,1.79,4,4v16.08 C116,66.46,114.21,68.25,112,68.25z"
     style="fill:#4FC3F7;"
     id="path32" />
  <g
     id="g47">
    <defs
       id="defs35">
      <path
         id="SVGID_1_"
         d="M20,37.08V92c0,3.3,2.7,6,6,6h98l0-60.92H20z" />
    </defs>
    <clipPath
       id="SVGID_2_">
      <use
         style="overflow:visible;"
         xlink:href="#SVGID_1_"
         id="use37" />
    </clipPath>
    <linearGradient
       id="SVGID_3_"
       gradientUnits="userSpaceOnUse"
       x1="72"
       x2="72"
       y1="73.25"
       y2="100">
      <stop
         offset="6.765343e-03"
         style="stop-color:#EF5350"
         id="stop40" />
      <stop
         offset="1"
         style="stop-color:#D32F2F"
         id="stop42" />
    </linearGradient>
    <rect
       height="31.72"
       style="clip-path:url(#SVGID_2_);fill:url(#SVGID_3_);"
       width="104"
       x="20"
       y="74.14"
       clip-path="url(#SVGID_2_)"
       id="rect45" />
  </g>
  <g
     style="opacity:0.2;"
     id="g51">
    <path
       d="M64.04,46.17c1.1,0,2,0.9,2,2v16.08c0,1.1-0.9,2-2,2h-8.11c-1.1,0-2-0.9-2-2V48.17c0-1.1,0.9-2,2-2 H64.04 M64.04,44.17h-8.11c-2.21,0-4,1.79-4,4v16.08c0,2.21,1.79,4,4,4h8.11c2.21,0,4-1.79,4-4V48.17 C68.04,45.96,66.25,44.17,64.04,44.17L64.04,44.17z"
       style="fill:#424242;"
       id="path49" />
  </g>
  <g
     style="opacity:0.2;"
     id="g55">
    <path
       d="M88.09,46.17c1.1,0,2,0.9,2,2v16.08c0,1.1-0.9,2-2,2h-8.11c-1.1,0-2-0.9-2-2V48.17c0-1.1,0.9-2,2-2 H88.09 M88.09,44.17h-8.11c-2.21,0-4,1.79-4,4v16.08c0,2.21,1.79,4,4,4h8.11c2.21,0,4-1.79,4-4V48.17 C92.09,45.96,90.3,44.17,88.09,44.17L88.09,44.17z"
       style="fill:#424242;"
       id="path53" />
  </g>
  <g
     style="opacity:0.2;"
     id="g59">
    <path
       d="M112,46.17c1.1,0,2,0.9,2,2v16.08c0,1.1-0.9,2-2,2h-8.11c-1.1,0-2-0.9-2-2V48.17c0-1.1,0.9-2,2-2 H112 M112,44.17h-8.11c-2.21,0-4,1.79-4,4v16.08c0,2.21,1.79,4,4,4H112c2.21,0,4-1.79,4-4V48.17C116,45.96,114.21,44.17,112,44.17 L112,44.17z"
       style="fill:#424242;"
       id="path57" />
  </g>
  <path
     d="M40.04,69.91H20V44h20.04c2.21,0,4,1.79,4,4v17.91C44.04,68.12,42.25,69.91,40.04,69.91z"
     style="fill:#4FC3F7;"
     id="path61" />
  <g
     style="opacity:0.2;"
     id="g65">
    <path
       d="M40.04,46c1.1,0,2,0.9,2,2v17.91c0,1.1-0.9,2-2,2H22V46H40.04 M40.04,44H20v25.91h20.04 c2.21,0,4-1.79,4-4V48C44.04,45.79,42.25,44,40.04,44L40.04,44z"
       style="fill:#424242;"
       id="path63" />
  </g>
  <path
     d="M120,28H24c-2.21,0-4,1.79-4,4v5.08h104V32C124,29.79,122.21,28,120,28z"
     style="fill:#37474F;"
     id="path67" />
  <g
     style="opacity:0.2;"
     id="g71">
    <path
       d="M120.02,31c0.29,0,0.98,0.07,0.98,0.75v5.08V95H26.04C24.45,95,23,93.45,23,91.75V36.83v-5.08 c0-0.74,1-0.75,1.04-0.75H120 M120.04,28h-96C21.83,28,20,29.54,20,31.75v5.08v54.92c0,3.3,2.74,6.25,6.04,6.25H124V36.83v-5.08 C124,29.54,122.25,28,120.04,28L120.04,28z"
       style="fill:#424242;"
       id="path69" />
  </g>
</svg>
